<?xml version="1.0" standalone="no"?><!DOCTYPE svg PUBLIC "-//W3C//DTD SVG 1.1//EN" "http://www.w3.org/Graphics/SVG/1.1/DTD/svg11.dtd"><svg width="100%" height="100%" viewBox="0 0 18 18" version="1.1" xmlns="http://www.w3.org/2000/svg" xmlns:xlink="http://www.w3.org/1999/xlink" xml:space="preserve" style="fill-rule:evenodd;clip-rule:evenodd;stroke-linejoin:round;stroke-miterlimit:1.41421;"><path d="M15.862,13.75c-0.257,0.594 -0.562,1.141 -0.914,1.644c-0.481,0.685 -0.875,1.16 -1.178,1.423c-0.47,0.433 -0.974,0.654 -1.514,0.667c-0.387,0 -0.854,-0.111 -1.398,-0.334c-0.546,-0.223 -1.047,-0.333 -1.505,-0.333c-0.481,0 -0.997,0.11 -1.548,0.333c-0.553,0.223 -0.998,0.34 -1.338,0.351c-0.517,0.023 -1.033,-0.205 -1.548,-0.684c-0.328,-0.286 -0.739,-0.778 -1.231,-1.474c-0.529,-0.743 -0.963,-1.605 -1.303,-2.587c-0.364,-1.061 -0.547,-2.089 -0.547,-3.084c0,-1.14 0.246,-2.123 0.739,-2.946c0.388,-0.662 0.904,-1.184 1.549,-1.567c0.646,-0.383 1.343,-0.578 2.094,-0.591c0.411,0 0.95,0.127 1.62,0.377c0.668,0.251 1.096,0.378 1.284,0.378c0.141,0 0.617,-0.149 1.425,-0.445c0.763,-0.275 1.408,-0.389 1.936,-0.344c1.431,0.116 2.506,0.68 3.22,1.696c-1.279,0.775 -1.912,1.861 -1.9,3.254c0.012,1.085 0.406,1.988 1.179,2.705c0.351,0.333 0.742,0.59 1.178,0.773c-0.094,0.274 -0.194,0.536 -0.3,0.788l0,0ZM12.58,0.838c0,0.85 -0.31,1.644 -0.93,2.379c-0.747,0.874 -1.651,1.379 -2.631,1.299c-0.013,-0.102 -0.02,-0.209 -0.02,-0.322c0,-0.817 0.355,-1.69 0.987,-2.405c0.315,-0.362 0.716,-0.662 1.202,-0.902c0.485,-0.237 0.943,-0.367 1.375,-0.39c0.012,0.114 0.017,0.228 0.017,0.341l0,0Z" style="fill:#000;fill-rule:nonzero;"/></svg>